<svg width="446" height="447" viewBox="0 0 446 447" fill="none" xmlns="http://www.w3.org/2000/svg">
<g filter="url(#filter0_d)">
<ellipse cx="226.529" cy="43.664" rx="43.7181" ry="43.664" fill="#F8F8F5"/>
<path d="M318.298 254.51C318.298 233.692 315.924 213.077 311.313 193.844C306.701 174.61 299.941 157.134 291.42 142.414C282.898 127.693 272.782 116.016 261.648 108.049C250.514 100.083 238.581 95.9821 226.529 95.9821C214.478 95.9821 202.545 100.083 191.411 108.049C180.277 116.016 170.161 127.693 161.639 142.414C153.118 157.134 146.358 174.61 141.746 193.844C137.134 213.077 134.761 233.692 134.761 254.51L226.529 254.51H318.298Z" fill="#F8F8F5"/>
</g>
<path d="M389.98 276.932L359.282 214.976L420.678 214.976L389.98 276.932Z" fill="#ECAA4A"/>
<g filter="url(#filter1_d)">
<rect x="4" y="247.823" width="434.031" height="34.6165" fill="#8EA8B4"/>
</g>
<g filter="url(#filter2_d)">
<rect x="22.9052" y="282.439" width="396.22" height="156.561" fill="#493E3C"/>
</g>
<rect x="14.2403" y="223.434" width="102.403" height="24.3889" fill="#ECAA4A"/>
<g filter="url(#filter3_d)">
<rect x="14.2403" y="199.832" width="102.403" height="24.3889" fill="#8EA8B4"/>
</g>
<path d="M340.748 147.907L362.41 116.044L380.109 136.499L389.98 147.907L404.75 131.975L419.519 116.044L440 136.499L404.75 131.975L389.98 147.907L380.109 136.499L340.748 147.907Z" fill="#60AD6E"/>
<path d="M389.98 218.32V147.907M389.98 147.907L380.109 136.499M389.98 147.907L404.75 131.975M380.109 136.499L362.41 116.044L340.748 147.907L380.109 136.499ZM404.75 131.975L419.519 116.044L440 136.499L404.75 131.975Z" stroke="#F8F8F5" stroke-width="4"/>
<defs>
<filter id="filter0_d" x="130.761" y="0" width="191.537" height="262.51" filterUnits="userSpaceOnUse" color-interpolation-filters="sRGB">
<feFlood flood-opacity="0" result="BackgroundImageFix"/>
<feColorMatrix in="SourceAlpha" type="matrix" values="0 0 0 0 0 0 0 0 0 0 0 0 0 0 0 0 0 0 127 0"/>
<feOffset dy="4"/>
<feGaussianBlur stdDeviation="2"/>
<feColorMatrix type="matrix" values="0 0 0 0 0 0 0 0 0 0 0 0 0 0 0 0 0 0 0.25 0"/>
<feBlend mode="normal" in2="BackgroundImageFix" result="effect1_dropShadow"/>
<feBlend mode="normal" in="SourceGraphic" in2="effect1_dropShadow" result="shape"/>
</filter>
<filter id="filter1_d" x="0" y="247.823" width="442.031" height="42.6165" filterUnits="userSpaceOnUse" color-interpolation-filters="sRGB">
<feFlood flood-opacity="0" result="BackgroundImageFix"/>
<feColorMatrix in="SourceAlpha" type="matrix" values="0 0 0 0 0 0 0 0 0 0 0 0 0 0 0 0 0 0 127 0"/>
<feOffset dy="4"/>
<feGaussianBlur stdDeviation="2"/>
<feColorMatrix type="matrix" values="0 0 0 0 0 0 0 0 0 0 0 0 0 0 0 0 0 0 0.25 0"/>
<feBlend mode="normal" in2="BackgroundImageFix" result="effect1_dropShadow"/>
<feBlend mode="normal" in="SourceGraphic" in2="effect1_dropShadow" result="shape"/>
</filter>
<filter id="filter2_d" x="18.9052" y="282.439" width="404.22" height="164.561" filterUnits="userSpaceOnUse" color-interpolation-filters="sRGB">
<feFlood flood-opacity="0" result="BackgroundImageFix"/>
<feColorMatrix in="SourceAlpha" type="matrix" values="0 0 0 0 0 0 0 0 0 0 0 0 0 0 0 0 0 0 127 0"/>
<feOffset dy="4"/>
<feGaussianBlur stdDeviation="2"/>
<feColorMatrix type="matrix" values="0 0 0 0 0 0 0 0 0 0 0 0 0 0 0 0 0 0 0.25 0"/>
<feBlend mode="normal" in2="BackgroundImageFix" result="effect1_dropShadow"/>
<feBlend mode="normal" in="SourceGraphic" in2="effect1_dropShadow" result="shape"/>
</filter>
<filter id="filter3_d" x="10.2403" y="199.832" width="110.403" height="32.3889" filterUnits="userSpaceOnUse" color-interpolation-filters="sRGB">
<feFlood flood-opacity="0" result="BackgroundImageFix"/>
<feColorMatrix in="SourceAlpha" type="matrix" values="0 0 0 0 0 0 0 0 0 0 0 0 0 0 0 0 0 0 127 0"/>
<feOffset dy="4"/>
<feGaussianBlur stdDeviation="2"/>
<feColorMatrix type="matrix" values="0 0 0 0 0 0 0 0 0 0 0 0 0 0 0 0 0 0 0.25 0"/>
<feBlend mode="normal" in2="BackgroundImageFix" result="effect1_dropShadow"/>
<feBlend mode="normal" in="SourceGraphic" in2="effect1_dropShadow" result="shape"/>
</filter>
</defs>
</svg>
